HIERARCHY
ROOT hip
{
	OFFSET 0.000000 0.000000 0.000000
	CHANNELS 6 Xposition Yposition Zposition Xrotation Zrotation Yrotation 
	JOINT abdomen
	{
		OFFSET 0.000000 3.422050 0.000000
		CHANNELS 3 Xrotation Zrotation Yrotation 
		JOINT chest
		{
			OFFSET 0.000000 8.486693 -0.684411
			CHANNELS 3 Xrotation Zrotation Yrotation 
			JOINT neck
			{
				OFFSET 0.000000 10.266162 -0.273764
				CHANNELS 3 Xrotation Zrotation Yrotation 
				JOINT head
				{
					OFFSET 0.000000 3.148285 0.000000
					CHANNELS 3 Xrotation Zrotation Yrotation 
					End Site
					{
						OFFSET 0.000000 3.148289 0.000000
					}
				}
			}
			JOINT lCollar
			{
				OFFSET 3.422053 6.707223 -0.821293
				CHANNELS 3 Yrotation Zrotation Xrotation 
				JOINT lShldr
				{
					OFFSET 3.285171 0.000000 0.000000
					CHANNELS 3 Zrotation Yrotation Xrotation 
					JOINT lForeArm
					{
						OFFSET 10.129278 0.000000 0.000000
						CHANNELS 3 Yrotation Zrotation Xrotation 
						JOINT lHand
						{
							OFFSET 8.486692 0.000000 0.000000
							CHANNELS 3 Zrotation Yrotation Xrotation 
							End Site
							{
								OFFSET 4.106464 0.000000 0.000000
							}
						}
					}
				}
			}
			JOINT rCollar
			{
				OFFSET -3.558935 6.707223 -0.821293
				CHANNELS 3 Yrotation Zrotation Xrotation 
				JOINT rShldr
				{
					OFFSET -3.148289 0.000000 0.000000
					CHANNELS 3 Zrotation Yrotation Xrotation 
					JOINT rForeArm
					{
						OFFSET -10.266159 0.000000 0.000000
						CHANNELS 3 Yrotation Zrotation Xrotation 
						JOINT rHand
						{
							OFFSET -8.349810 0.000000 0.000000
							CHANNELS 3 Zrotation Yrotation Xrotation 
							End Site
							{
								OFFSET -4.106464 0.000000 0.000000
							}
						}
					}
				}
			}
		}
	}
	JOINT lThigh
	{
		OFFSET 5.338403 -1.642589 1.368821
		CHANNELS 3 Xrotation Zrotation Yrotation 
		JOINT lShin
		{
			OFFSET -2.053232 -20.121670 0.000000
			CHANNELS 3 Xrotation Zrotation Yrotation 
			JOINT lFoot
			{
				OFFSET 0.000000 -19.300380 -1.231939
				CHANNELS 3 Xrotation Yrotation Zrotation 
				End Site
				{
					OFFSET 0.000000 -2.463878 4.653993
				}
			}
		}
	}
	JOINT rThigh
	{
		OFFSET -5.338403 -1.642589 1.368821
		CHANNELS 3 Xrotation Zrotation Yrotation 
		JOINT rShin
		{
			OFFSET 2.053232 -20.121670 0.000000
			CHANNELS 3 Xrotation Zrotation Yrotation 
			JOINT rFoot
			{
				OFFSET 0.000000 -19.300380 -1.231939
				CHANNELS 3 Xrotation Yrotation Zrotation 
				End Site
				{
					OFFSET 0.000000 -2.463878 4.653993
				}
			}
		}
	}
}
MOTION
Frames: 8
Frame Time: 0.049897
0.000000 43.528500 0.000000 0.000000 0.000000 0.000000 0.000000 0.000000 0.000000 0.000000 0.000000 0.000000 0.000000 0.000000 0.000000 0.000000 0.000000 0.000000 0.000000 0.000000 0.000000 0.000000 0.000000 0.000000 0.000000 0.000000 0.000000 0.000000 0.000000 0.000000 0.000000 0.000000 0.000000 0.000000 0.000000 0.000000 0.000000 0.000000 0.000000 0.000000 0.000000 0.000000 0.000000 0.000000 0.000000 0.000000 0.000000 0.000000 0.000000 0.000000 0.000000 0.000000 0.000000 0.000000 0.000000 0.000000 0.000000 0.000000 0.000000 0.000000 
0.820026 25.208694 -2.189730 14.998176 0.000000 0.000000 19.712994 0.380343 -0.421974 -16.168356 -0.655768 -2.017506 -19.004614 0.000000 0.000000 -0.326982 0.000000 0.000000 1.438603 -6.116073 17.857874 -43.286900 -6.650334 -1.509658 -51.291523 -49.805309 -12.385935 49.221455 -9.951784 12.226615 27.377226 18.849195 -14.575265 39.784008 10.099838 -2.929015 34.121479 37.522129 -0.422634 -41.668591 -20.235468 15.969652 -21.572348 11.479532 9.813622 94.381287 1.970460 -0.402297 61.169415 8.946573 -15.698555 -21.592844 -11.593357 -9.906270 94.392555 -2.084088 0.459629 62.146355 -8.760120 15.769882 
0.971547 25.225716 -1.969790 14.111323 0.000000 0.000000 19.712538 0.378114 -0.423160 -13.017767 -0.696875 -1.977679 -19.047983 -0.027808 -0.003404 -0.649236 0.000000 0.000000 1.047336 -5.777664 16.585999 -43.023029 -6.676293 -1.574486 -51.291523 -49.805309 -12.385935 49.521149 -10.578723 11.285023 24.362185 19.020447 -14.111283 41.476421 14.000037 -3.063542 33.539982 39.270939 1.423980 -41.625908 -20.792486 16.599911 -19.951227 11.110744 9.987200 93.612267 1.906200 -0.420659 61.198563 9.124321 -15.911141 -20.036737 -11.785019 -9.744751 93.653625 -2.025843 0.477210 62.221092 -8.418953 15.604377 
1.123068 25.242739 -1.749849 13.223609 0.000000 0.000000 19.712082 0.375885 -0.424346 -9.826180 -0.740684 -1.939699 -19.091352 -0.055620 -0.006788 -0.971681 0.000000 0.000000 0.663105 -5.429940 15.314430 -42.759109 -6.701959 -1.639443 -51.291519 -49.805305 -12.385936 49.832420 -11.201680 10.336643 21.309908 19.169847 -13.632753 43.202236 17.924349 -3.079443 32.866302 41.010376 3.349377 -41.589626 -21.350410 17.232655 -18.327883 10.736036 10.150392 92.842712 1.841652 -0.438168 61.228386 9.301976 -16.123943 -18.475092 -11.981543 -9.588006 92.914230 -1.967335 0.494048 62.296783 -8.077935 15.438533 
1.274589 25.259760 -1.529909 12.335150 0.000000 0.000000 19.711628 0.373657 -0.425532 -6.597835 -0.787079 -1.903824 -19.134718 -0.083436 -0.010151 -1.294311 0.000000 0.000000 0.286215 -5.073131 14.043507 -42.495117 -6.727329 -1.704527 -51.291523 -49.805309 -12.385935 50.155331 -11.820321 9.381420 18.224386 19.296022 -13.141344 44.975239 21.858349 -2.968000 32.092564 42.736229 5.361384 -41.559826 -21.909111 17.867964 -16.702885 10.355830 10.302958 92.072746 1.776834 -0.454818 61.258907 9.479532 -16.336967 -16.908445 -12.182747 -9.436264 92.174438 -1.908581 0.510138 62.373417 -7.737083 15.272347 
1.426109 25.276783 -1.309969 11.446048 0.000000 0.000000 19.711172 0.371428 -0.426718 -3.337292 -0.835912 -1.870300 -19.178085 -0.111257 -0.013493 -1.617123 0.000000 0.000000 -0.083041 -4.707486 12.773559 -42.231056 -6.752400 -1.769734 -51.291523 -49.805309 -12.385936 50.489895 -12.434301 8.419304 15.109944 19.397762 -12.638935 46.811306 25.787106 -2.718112 31.210102 44.443871 7.468559 -41.536583 -22.468451 18.505915 -15.076796 9.970557 10.444673 91.302391 1.711762 -0.470602 61.290104 9.656988 -16.550209 -15.337352 -12.388434 -9.289748 91.434319 -1.849595 0.525475 62.450981 -7.396402 15.105805 
1.577630 25.293804 -1.090029 10.556408 0.000000 0.000000 19.710716 0.369199 -0.427904 -0.049420 -0.887003 -1.839364 -19.221457 -0.139082 -0.016814 -1.940111 0.000000 0.000000 -0.444384 -4.333263 11.504901 -41.966949 -6.777175 -1.835066 -51.291519 -49.805305 -12.385937 50.836143 -13.043274 7.450249 11.971178 19.474030 -12.127564 48.728886 29.695263 -2.315748 30.209564 46.128384 9.680223 -41.520023 -23.028316 19.146601 -13.450166 9.580664 10.575339 90.531723 1.646455 -0.485516 61.321991 9.834338 -16.763678 -13.762358 -12.598392 -9.148667 90.693954 -1.790391 0.540053 62.529514 -7.055909 14.938910 
1.729151 25.310827 -0.870089 9.666337 0.000000 0.000000 19.710260 0.366970 -0.429090 3.260656 -0.940147 -1.811230 -19.264826 -0.166911 -0.020114 -2.263270 0.000000 0.000000 -0.797546 -3.950740 10.237840 -41.702789 -6.801652 -1.900517 -51.291523 -49.805313 -12.385938 51.194096 -13.646899 6.474226 8.812922 19.523970 -11.609424 50.749817 33.567142 -1.743257 29.080853 47.784431 12.006435 -41.510208 -23.588562 19.790092 -11.823551 9.186614 10.694788 89.760826 1.580929 -0.499555 61.354580 10.011584 -16.977375 -12.184038 -12.812407 -9.013227 89.953346 -1.730982 0.553869 62.608990 -6.715611 14.771646 
